<svg version="1.1" viewBox="0.0 0.0 960.0 720.0" fill="none" stroke="none" stroke-linecap="square" stroke-miterlimit="10" xmlns:xlink="http://www.w3.org/1999/xlink" xmlns="http://www.w3.org/2000/svg"><clipPath id="p.0"><path d="m0 0l960.0 0l0 720.0l-960.0 0l0 -720.0z" clip-rule="nonzero"/></clipPath><g clip-path="url(#p.0)"><path fill="#000000" fill-opacity="0.0" d="m0 0l960.0 0l0 720.0l-960.0 0z" fill-rule="evenodd"/><path fill="#274e13" d="m315.87665 304.4462l0 0c0 -79.52901 64.47098 -144.0 144.0 -144.0l0 0c38.191162 0 74.818115 15.171387 101.823364 42.17662c27.005249 27.005234 42.176636 63.632187 42.176636 101.82338l0 0c0 79.52899 -64.47101 144.0 -144.0 144.0l0 0c-79.52902 0 -144.0 -64.47101 -144.0 -144.0z" fill-rule="evenodd"/><path stroke="#000000" stroke-width="1.0" stroke-linejoin="round" stroke-linecap="butt" d="m315.87665 304.4462l0 0c0 -79.52901 64.47098 -144.0 144.0 -144.0l0 0c38.191162 0 74.818115 15.171387 101.823364 42.17662c27.005249 27.005234 42.176636 63.632187 42.176636 101.82338l0 0c0 79.52899 -64.47101 144.0 -144.0 144.0l0 0c-79.52902 0 -144.0 -64.47101 -144.0 -144.0z" fill-rule="evenodd"/><path fill="#000000" fill-opacity="0.0" d="m349.0735 222.83989l221.60632 0l0 163.2126l-221.60632 0z" fill-rule="evenodd"/><path fill="#f1c232" d="m465.87582 247.27551q3.671875 0.71875 5.5 2.5q1.84375 1.765625 1.84375 4.140625q0 3.921875 -2.203125 5.703125q-2.1875 1.78125 -6.921875 1.421875q-10.6875 -0.828125 -16.6875 -1.125q-5.984375 -0.296875 -15.71875 -0.421875q-4.375 21.828125 -8.0625 43.90625q-1.296875 8.0625 -2.734375 18.6875q-1.421875 10.625 -1.890625 17.140625q-0.234375 3.453125 -2.84375 5.296875q-2.609375 1.828125 -6.296875 1.828125q-3.90625 0 -6.046875 -1.890625q-2.140625 -1.90625 -2.140625 -4.984375q0 -2.859375 0.890625 -9.4375q0.890625 -6.59375 2.078125 -13.828125q1.3125 -7.234375 2.015625 -12.578125q1.3125 -9.015625 2.96875 -17.90625q1.65625 -8.90625 3.328125 -16.859375q0.34375 -1.78125 0.8125 -4.09375q0.484375 -2.3125 1.078125 -5.15625q-11.625 0.359375 -18.28125 1.90625q-6.640625 1.53125 -9.4375 4.328125q-2.78125 2.78125 -2.78125 7.171875q0 4.03125 2.375 7.703125q0.484375 0.84375 0.484375 1.78125q0 2.265625 -2.671875 4.21875q-2.671875 1.953125 -5.515625 1.953125q-2.015625 0 -3.328125 -1.1875q-2.375 -2.015625 -3.921875 -5.75q-1.53125 -3.734375 -1.53125 -8.484375q0 -10.078125 6.578125 -16.1875q6.59375 -6.125 20.0625 -8.96875q13.46875 -2.84375 34.578125 -2.84375q13.0625 0 20.828125 0.484375q7.765625 0.46875 13.59375 1.53125zm10.437714 99.078125q-4.390625 0 -6.296875 -1.953125q-1.890625 -1.96875 -1.890625 -7.421875q0 -3.671875 0.703125 -8.890625q0.71875 -5.234375 2.5 -15.796875q0.234375 -1.421875 1.890625 -11.5625q1.671875 -10.140625 2.96875 -21.296875q1.1875 -9.5 1.1875 -14.234375q0 -5.34375 -3.90625 -5.34375q-2.96875 0 -7.421875 3.140625q-4.453125 3.140625 -9.546875 10.03125q-1.671875 2.25 -3.6875 2.25q-1.65625 0 -2.90625 -1.59375q-1.25 -1.609375 -1.25 -3.625q0 -2.015625 0.71875 -3.84375q0.71875 -1.84375 2.609375 -4.46875q5.8125 -7.9375 12.921875 -12.265625q7.125 -4.34375 14.96875 -4.34375q6.515625 0 9.78125 4.046875q3.265625 4.03125 3.265625 11.734375q0 6.890625 -1.90625 19.9375q5.9375 -17.5625 15.078125 -26.640625q9.140625 -9.078125 21.46875 -9.078125q9.734375 0 14.65625 5.53125q4.921875 5.515625 4.921875 14.765625q0 5.21875 -1.53125 12.6875l-7.25 33.9375q-1.171875 5.9375 -1.171875 10.203125q0 4.984375 2.3125 7.484375q2.3125 2.484375 6.453125 2.484375q3.921875 0 7.65625 -2.609375q3.75 -2.609375 8.84375 -8.65625q1.421875 -1.65625 3.203125 -1.65625q1.546875 0 2.4375 1.421875q0.890625 1.421875 0.890625 3.90625q0 4.625 -2.265625 7.359375q-6.15625 7.484375 -12.21875 10.921875q-6.046875 3.4375 -12.6875 3.4375q-10.09375 0 -15.796875 -5.984375q-5.6875 -6.0 -5.6875 -16.09375q0 -3.90625 0.65625 -8.53125q0.65625 -4.625 2.1875 -11.75l4.75 -21.71875q0.234375 -1.0625 0.828125 -3.78125q0.59375 -2.734375 0.953125 -5.171875q0.359375 -2.4375 0.359375 -4.8125q0 -3.796875 -2.140625 -6.046875q-2.125 -2.25 -6.046875 -2.25q-7.125 0 -14.25 7.59375q-7.109375 7.59375 -13.171875 24.5q-6.046875 16.90625 -9.484375 43.25q-0.828125 6.046875 -2.4375 8.421875q-1.59375 2.375 -6.21875 2.375z" fill-rule="nonzero"/></g></svg>